<?xml version="1.0" encoding="UTF-8"?>
<!DOCTYPE svg PUBLIC "-//W3C//DTD SVG 1.1//EN" "http://www.w3.org/Graphics/SVG/1.1/DTD/svg11.dtd">
<!-- Creator: CorelDRAW X5 -->
<svg xmlns="http://www.w3.org/2000/svg" xml:space="preserve" width="245px" height="313px" style="shape-rendering:geometricPrecision; text-rendering:geometricPrecision; image-rendering:optimizeQuality; fill-rule:evenodd; clip-rule:evenodd"
viewBox="0 0 2450 3130"
 xmlns:xlink="http://www.w3.org/1999/xlink">
 <defs>
  <style type="text/css">
   <![CDATA[
    .str0 {stroke:black;stroke-width:5.6693}
    .str2 {stroke:#B1AFB0;stroke-width:5.6693}
    .str3 {stroke:#EAEAEA;stroke-width:5.6693}
    .str1 {stroke:#2B2A29;stroke-width:10.0006}
    .fil7 {fill:none}
    .fil3 {fill:#04040B}
    .fil8 {fill:#101010}
    .fil1 {fill:#336699}
    .fil10 {fill:#550F0D}
    .fil5 {fill:#B1AFB0}
    .fil9 {fill:#CE2007}
    .fil2 {fill:#CE9C69}
    .fil0 {fill:#D7AB28}
    .fil4 {fill:#DEDEDE}
    .fil11 {fill:#E8E8E8}
    .fil6 {fill:#EAEAEA}
   ]]>
  </style>
    <clipPath id="id0">
     <path d="M203 2l2245 0 0 3125 -2245 0 0 -3125z"/>
    </clipPath>
 </defs>
 <g id="Layer_x0020_2">
  <metadata id="CorelCorpID_0Corel-Layer"/>
  <g id="_301077928">
   <g id="logan">
    <path id="body" class="fil0 str0" d="M1682 1773c-57,-49 -55,-57 -142,-126 -43,-29 -186,106 -235,104 -47,-2 -113,25 -153,19 -13,-2 -79,28 -116,31 -27,2 -35,13 -90,13 -62,0 -136,9 -197,-4 -65,3 -132,-5 -196,-6 -58,0 -61,-98 -117,-93 -3,9 -67,42 -102,74 -101,64 -294,344 -282,369 -1,3 35,11 35,13 24,18 35,45 57,32 21,-31 165,-156 274,-154 165,33 312,340 298,403 31,19 25,28 66,35 47,8 187,2 246,7 45,4 75,22 118,14 21,-4 145,20 161,6 1,-1 23,-187 25,-201 20,-128 45,-177 122,-235 28,-21 201,-76 294,51 33,30 52,66 61,97 52,22 99,-7 42,-39 12,6 44,-27 51,-27 0,-8 -15,-38 -21,-49 -43,-96 -55,-211 -199,-335z"/>
    <path class="fil0 str1" d="M1013 2570c152,18 152,76 187,172l41 -3 40 -13c8,-74 28,-189 24,-263 -3,111 -126,11 -161,-25 -18,-19 -41,11 -27,42 -52,-16 -95,-13 -129,-44 -22,-20 -32,75 24,135z"/>
    <path class="fil0 str0" d="M1013 2570c12,-63 15,-129 -117,-108 -12,2 -16,-7 -31,-8 -16,-1 -43,-38 -39,-22 10,45 -43,24 -59,24 -6,0 -11,-12 -15,-12 -1,1 -39,3 -37,5 -3,55 14,225 14,284 0,22 38,114 13,124 -10,2 0,10 0,14 -1,2 55,22 72,18 3,-1 -6,-11 -3,-27 -3,-58 -6,-69 -6,-136 -14,-68 39,-84 58,-109 17,-13 34,-20 51,-30 25,-15 64,-17 99,-17z"/>
    <path class="fil1 str1" d="M1202 2819c-1,45 -5,77 -8,123 4,15 11,21 15,21 18,3 207,3 206,1 0,-4 -3,-24 -15,-26 -28,-10 -65,-19 -90,-27 -30,-8 -33,-63 -33,-90 0,-7 0,-12 0,-14l4 -83c0,-4 -37,23 -79,17 -10,-1 0,20 0,32 0,3 0,6 -1,8 0,14 0,27 -1,39z"/>
    <path class="fil1 str1" d="M727 2844c-5,28 -3,66 -21,74 -21,15 -73,26 -98,36 -10,2 -16,16 -16,20 -1,2 189,4 206,0 3,-1 10,-6 14,-21 -2,-37 1,-65 -1,-98 -20,-146 51,-74 -82,-121 -4,6 -1,59 -1,68 0,3 1,25 -2,42z"/>
    <path class="fil1 str0" d="M143 2199c-25,-27 -56,-41 -93,-45 -30,15 -32,284 -37,322 -6,43 -21,43 -3,101 29,50 104,10 106,-40 2,-14 -17,-41 -20,-28 -1,1 3,25 -7,12 -9,-11 -4,-15 6,-19 0,-3 2,-7 3,-9 -46,-83 49,-293 45,-295z"/>
    <path class="fil1 str0" d="M1520 2051c-23,-102 107,-257 162,-277 74,-29 46,-22 151,-50 -77,-56 -205,-102 -304,-74 11,34 -145,104 -246,133 0,0 -42,-12 -50,-5 -43,41 -62,5 -103,86 -11,87 52,696 167,756 1,-12 30,-346 31,-289 -29,-23 -86,-70 -81,-89 43,23 45,10 91,19 4,-19 11,-41 20,-62 -71,-55 -126,-147 -114,-157 75,62 114,80 153,88 28,-37 68,-68 123,-80z"/>
    <path class="fil1 str0" d="M406 2046c12,-110 -213,-317 -232,-320 90,-26 166,-32 262,-14 57,46 86,24 184,44 0,0 19,-15 27,-8 44,36 59,-2 105,76 19,85 71,697 -31,769 -2,-122 -14,-243 -49,-286 25,-25 62,-110 56,-128 -38,27 -51,48 -93,61 -6,-19 -35,-44 -45,-65 61,-61 86,-154 74,-163 -64,69 -98,90 -134,102 -30,-34 -70,-61 -124,-67z"/>
    <path id="mask" class="fil0 str1" d="M1168 785c81,-7 254,-12 311,34 -91,94 -265,62 -416,14 24,-23 37,-31 105,-47zm19 250c13,3 114,18 121,17 4,2 65,2 66,3 8,4 22,-27 24,-17 9,1 35,3 4,-20 0,0 62,87 67,95 26,41 31,81 42,131 0,47 -10,253 -11,286 -1,26 -46,139 -66,158 -35,62 -21,46 -44,61 -283,180 -718,99 -799,21 -23,-22 -50,-45 -65,-84 -20,-33 -23,-101 -23,-101 1,-34 -8,-49 -13,-137 0,-87 -10,-186 3,-257 51,-154 346,-100 291,-225 -9,-9 -15,-44 6,-50 10,-3 25,-15 46,-17 44,-5 50,-9 58,-20 96,-9 -2,-5 35,28 3,2 63,26 68,25 22,-2 48,-9 36,41 38,0 117,55 152,62zm-280 792c38,-16 143,-67 190,-66 213,6 106,-111 280,-93 -34,-29 142,11 122,-20 13,-82 110,-339 110,-626 48,30 158,-322 -15,-256 -14,-68 -4,-76 -30,-140 -23,-57 -63,-112 -118,-169 -77,-63 -47,-61 -189,-112 -329,-58 -421,-63 -622,-7 -85,51 -243,125 -314,426 -3,9 -4,23 -6,40 -151,-19 -124,126 10,255 11,114 83,598 111,652 34,41 130,13 91,67 -14,20 157,64 193,68 105,10 133,-11 188,-19zm-256 -1009c62,6 116,23 145,26 2,66 -291,106 -358,27 32,-25 66,-40 101,-48 38,-9 77,-9 113,-5z"/>
    <path class="fil2 str0" d="M759 974c-10,-5 -15,-46 -2,-53 10,-3 33,-8 52,-17 38,-17 47,-44 59,-84 72,-26 69,32 105,65 3,2 13,32 42,19 28,-6 49,-12 49,52 39,21 124,41 152,44 14,1 104,35 319,-10 40,-9 43,46 37,131 6,272 -11,385 -30,444 -47,146 -35,118 -105,212 -107,100 -561,186 -862,65 -141,-89 -124,-121 -146,-225 -16,-79 -31,-152 -42,-267 2,-75 -24,-312 7,-301 173,73 334,-66 363,-75z"/>
    <path class="fil3 str0" d="M960 949c21,0 92,5 71,-20 -33,-39 -71,20 -71,20z"/>
    <path class="fil3 str0" d="M856 942c-19,5 -81,28 -70,0 18,-45 70,0 70,0z"/>
    <path class="fil1 str0" d="M1807 2214l94 -63c0,21 35,333 36,343 6,43 21,43 3,101 -30,50 -105,10 -107,-40 -2,-14 17,-41 20,-28 1,1 -3,25 7,12 9,-11 4,-15 -6,-19 0,-3 -2,-7 -3,-9 44,-80 -51,-295 -45,-298z"/>
    <path class="fil1 str0" d="M1049 880c-81,-213 103,-320 417,-444 77,-30 138,-134 268,-278 -27,116 -2,772 -38,826 -14,76 -65,93 -88,141 -11,87 -18,76 -18,183 0,16 -42,285 -42,285 -4,18 -45,123 -52,103 -18,-50 -148,-493 -132,-536 16,-44 107,-87 171,-169 -181,40 -376,15 -471,-34 -9,-27 -6,-50 -16,-76z"/>
    <path class="fil4 str0" d="M1063 832c63,-61 297,-78 416,-14 -101,101 -271,56 -416,14z"/>
    <path class="fil3 str0" d="M1336 787c-61,71 -101,69 -120,-6l118 0 2 6z"/>
    <path class="fil5 str2" d="M1272 792l-15 0 0 27c12,-1 18,-9 15,-27z"/>
    <path class="fil6 str3" d="M1283 791c1,-1 37,0 42,0 -10,12 -28,19 -42,19l0 -19z"/>
    <path class="fil1 str0" d="M446 486c-75,-14 -140,-132 -259,-275 25,116 -40,632 -7,687 13,76 131,194 152,242 11,87 20,102 29,205 1,15 46,260 46,260 0,35 31,146 42,109 14,-51 142,-499 127,-543 -15,-44 -81,-26 -140,-108 166,40 247,-19 323,-88 -7,-1 -12,-24 -11,-49 67,-24 84,-129 59,-251 -65,-73 -143,-146 -361,-188z"/>
    <path class="fil4 str0" d="M795 845c-60,-7 -232,-74 -358,27 67,79 360,39 358,-27z"/>
    <path class="fil3 str0" d="M537 824c39,-9 77,-10 113,-5 -32,123 -113,73 -113,5z"/>
    <path class="fil7 str0" d="M423 926c146,61 275,40 389,-54"/>
    <path class="fil7 str0" d="M1079 869c126,85 253,79 381,8"/>
    <path class="fil5 str2" d="M587 830c1,11 1,25 17,24 0,-9 -1,-17 -1,-25 -6,0 -17,1 -17,1z"/>
    <path class="fil6 str3" d="M618 828l0 24c11,-2 19,-8 22,-22l0 -1 -22 0z"/>
    <path class="fil2 str1" d="M1881 2109c-43,-96 -55,-211 -199,-335 -55,20 -185,176 -162,277 66,-13 165,-10 228,75 32,29 51,65 61,96 -1,-5 -2,-8 -1,-8l43 -29 50 -33c-4,-12 -14,-34 -19,-43z"/>
    <path class="fil2 str1" d="M406 2046c6,-61 -59,-151 -122,-220 -104,100 -244,308 -233,329 36,3 67,18 93,45 20,-30 157,-149 265,-153 -1,0 -2,0 -3,0z"/>
    <path class="fil7 str0" d="M1690 1860c30,-27 52,-38 66,-31"/>
    <path class="fil7 str0" d="M1756 1895c10,-12 25,-20 45,-24"/>
    <path class="fil7 str0" d="M1763 1954c12,-15 27,-23 46,-24"/>
    <path class="fil7 str0" d="M1819 2010c12,-11 26,-17 42,-17"/>
    <path class="fil7 str0" d="M1791 1978c10,-13 28,-21 56,-24"/>
    <path class="fil7 str0" d="M1707 1891c18,-23 44,-38 77,-45"/>
    <path class="fil7 str0" d="M1721 1954c14,-20 31,-32 52,-35"/>
    <path class="fil7 str0" d="M170 2048c-9,-15 -30,-28 -63,-38"/>
    <path class="fil7 str0" d="M192 1982c-14,-15 -35,-23 -63,-24"/>
    <path class="fil7 str0" d="M284 1912c-8,-19 -30,-32 -66,-38"/>
    <path class="fil7 str0" d="M236 1956c-17,-16 -41,-25 -73,-28"/>
    <path class="fil7 str0" d="M182 2019c-5,-19 -23,-31 -52,-35"/>
    <path class="fil7 str0" d="M128 2044c-6,-13 -25,-20 -56,-21"/>
    <path class="fil7 str0" d="M227 1923c-10,-15 -23,-23 -38,-24"/>
    <path class="fil8 str0" d="M1305 2527c0,-39 -556,-51 -588,-19 -25,-19 -30,-32 -7,-67 28,-41 552,-36 594,4 34,27 -4,88 2,82z"/>
    <path class="fil0 str0" d="M946 2408c-6,27 -19,73 10,91 1,1 19,11 19,11 54,19 45,16 90,1 26,-9 42,-93 2,-113 -8,-2 -6,-4 -25,-9 -15,-3 1,-1 -17,-4 -53,-11 -72,5 -79,24z"/>
    <path class="fil9 str0" d="M1011 2439l40 -36c-6,-2 -4,-3 -18,-6 -10,-2 0,0 -12,-3 -29,-6 -44,0 -52,9l42 37z"/>
    <path class="fil9 str0" d="M959 2414c-2,3 -4,5 -5,8 -4,19 -14,53 7,65l40 -36 -42 -37z"/>
    <path class="fil9 str0" d="M1012 2459l-40 36c1,0 14,8 14,8 39,14 32,12 65,0 2,-1 4,-2 5,-4l-44 -41z"/>
    <path class="fil9 str0" d="M1066 2491c15,-15 22,-65 -4,-78l-40 36 44 41z"/>
    <g>
     <path class="fil10 str0" d="M657 1528c253,125 431,24 580,-70 108,-45 265,75 47,209 -316,42 -583,-44 -628,-139z"/>
     <path class="fil11 str1" d="M1253 1522c49,28 108,18 133,-21 -20,-40 -78,-62 -131,-48l0 1 -1 -1c-6,1 -12,3 -17,6 -75,47 -157,96 -252,117 32,38 67,39 95,27 11,-21 26,-31 45,-32 7,-7 11,-14 11,-17 0,4 6,13 13,21 13,4 28,12 44,23 33,-2 53,-38 59,-74 2,-52 0,-1 0,-2z"/>
     <path class="fil11 str1" d="M816 1595c44,77 101,56 137,25 4,-5 8,-9 13,-13 12,-13 19,-26 19,-32 -87,19 -184,16 -297,-33 0,5 12,11 0,5 17,37 38,54 113,81 9,-9 15,-20 16,-33z"/>
     <path class="fil11 str1" d="M1089 1678c37,1 75,0 115,-2 9,-7 17,-15 25,-25 9,9 18,16 28,21 9,-1 18,-2 28,-3 43,-26 71,-52 88,-76 -49,-73 -104,-67 -163,18 -6,-4 -11,-8 -16,-12 -16,-11 -31,-18 -44,-23 -9,-3 -17,-4 -24,-4 -19,1 -34,11 -45,32 -6,11 -10,26 -14,43 -41,-45 -75,-58 -101,-38 -4,3 -9,8 -13,13 -8,10 -15,24 -22,42 47,8 98,14 152,15 0,-1 1,-2 1,-3 2,1 3,2 5,3z"/>
    </g>
   </g>
  </g>
 </g>
</svg>
